<?xml version="1.0" encoding="utf-8"?>
<!-- Generator: Adobe Illustrator 26.0.3, SVG Export Plug-In . SVG Version: 6.00 Build 0)  -->
<svg version="1.1" id="Layer_1"
    xmlns="http://www.w3.org/2000/svg"
    xmlns:xlink="http://www.w3.org/1999/xlink" x="0px" y="0px" viewBox="0 0 1500 1500" enable-background="new 0 0 1500 1500" xml:space="preserve">
    <style>
    path { fill: #000000; }
    @media (prefers-color-scheme: dark) {
      path { fill: #ffffff; }
    }
    </style>
    <g>
        <rect x="0" fill="none" width="1500" height="1500"/>
    </g>
    <g>
        <path d="M177.3,152.31H39.43V61.39h404.71v90.92H306.27V415.2H177.3V152.31z"/>
        <path d="M414,287.21c0-79.56,82.52-135.4,200.63-135.4c116.13,0,192.72,53.86,192.72,135.89c0,7.41-0.99,18.28-3.46,26.68H537.05
		c13.34,29.65,57.82,41.51,105.75,41.51c50.4,0,101.3-10.87,127.49-25.7l32.12,55.35c-34.59,22.24-99.82,37.56-168.01,37.56
		C502.95,423.11,414,370.23,414,287.21z M689.74,264.48c-1.48-29.15-35.08-48.92-76.1-48.92c-42,0-74.12,20.26-78.57,48.92H689.74z" />
        <path d="M842.43,160.22h97.35l15.32,64.73h0.49c23.23-44.97,71.16-73.14,129.47-73.14c59.3,0,98.34,28.66,112.67,74.12h0.49
		c23.72-46.45,75.61-74.12,131.94-74.12c75.61,0,120.08,45.46,120.08,113.66V415.2h-117.11V282.77c0-35.58-21.25-56.83-57.82-56.83
		c-44.47,0-70.66,27.18-70.66,72.15V415.2h-116.62V282.77c0-35.58-21.74-56.83-57.82-56.83c-44.47,0-70.66,27.18-70.66,72.15V415.2
		H842.43V160.22z"/>
        <path d="M54.75,664.06h100.81l15.32,65.72h0.49c19.77-44.97,74.62-74.12,138.86-74.12c90.92,0,150.22,53.86,150.22,135.89
		c0,82.03-59.3,135.4-150.22,135.4c-63.75,0-118.1-28.66-137.87-73.13h-0.49v169H54.75V664.06z M343.33,791.55
		c0-35.08-34.59-58.31-87.96-58.31c-52.87,0-87.96,23.23-87.96,58.31c0,35.08,35.09,57.82,87.96,57.82
		C308.74,849.37,343.33,826.64,343.33,791.55z"/>
        <path d="M481.69,867.65l44.47-76.59c41.02,32.61,117.61,56.33,185.31,56.33c49.91,0,81.54-11.86,81.54-30.14
		c0-15.32-22.73-24.71-76.59-30.64l-65.23-7.41c-111.68-11.86-159.61-42.99-159.61-105.75c0-76.1,85.98-119.09,211.99-119.09
		c74.62,0,144.79,17.79,188.27,45.96l-36.07,74.12c-38.54-25.7-96.85-42-151.21-41.51c-50.4,0.49-87.47,12.35-87.96,31.13
		c0,13.34,19.77,21.74,65.23,26.19l65.72,6.92c119.59,12.35,170.98,44.97,170.98,109.21c0.49,73.14-83.51,123.04-213.47,123.04
		C620.06,929.42,529.13,904.22,481.69,867.65z"/>
        <path d="M999.57,828.12l-0.49-92.9h-71.16v-71.16h71.16v-68.19l116.62-20.75v88.95h155.66v71.16h-155.66v66.71
		c0,30.64,15.81,46.45,51.39,46.45c34.59,0,60.29-12.35,87.96-37.56l24.71,65.72c-39.53,35.58-83.51,50.4-146.27,50.4
		C1050.47,926.95,999.57,889.4,999.57,828.12z"/>
        <path d="M46.35,1295.4c0-82.03,81.04-135.89,204.58-135.89c124.03,0,205.07,53.86,205.07,135.89s-81.04,135.4-205.07,135.4
		C127.39,1430.8,46.35,1377.43,46.35,1295.4z M338.89,1295.4c0-40.52-34.59-67.2-87.96-67.2c-53.37,0-87.96,26.68-87.96,67.2
		s34.59,67.2,87.96,67.2C304.3,1362.6,338.89,1335.92,338.89,1295.4z"/>
        <path d="M806.36,1271.68l-106.74,20.75c-1.98-38.05-18.78-62.26-42.99-62.26c-33.11,0-52.87,30.64-52.87,79.06v113.66H486.64
		v-254.98h97.35l15.81,58.8h0.49c18.78-41.51,60.29-67.2,106.24-67.2C763.36,1159.5,802.4,1203.48,806.36,1271.68z"/>
        <path d="M820.69,1294.9c0-79.56,82.52-135.4,200.63-135.4c116.13,0,192.72,53.86,192.72,135.89c0,7.41-0.99,18.28-3.46,26.68
		H943.73c13.34,29.65,57.82,41.51,105.75,41.51c50.4,0,101.3-10.87,127.49-25.7l32.12,55.35c-34.59,22.24-99.82,37.56-168.01,37.56
		C909.64,1430.8,820.69,1377.92,820.69,1294.9z M1096.43,1272.17c-1.48-29.16-35.08-48.92-76.1-48.92c-42,0-74.12,20.26-78.57,48.92
		H1096.43z"/>
        <path d="M1236.77,1372.98c0-32.61,26.68-55.34,64.24-55.34c37.56,0,64.73,22.73,64.73,55.34c0,32.12-27.18,55.35-64.73,55.35
		C1263.45,1428.32,1236.77,1405.1,1236.77,1372.98z"/>
    </g>
</svg>
