<?xml version="1.0" encoding="utf-8"?>
<!-- Generator: Adobe Illustrator 26.0.3, SVG Export Plug-In . SVG Version: 6.00 Build 0)  -->
<svg version="1.1" id="Layer_1" xmlns="http://www.w3.org/2000/svg" xmlns:xlink="http://www.w3.org/1999/xlink" x="0px" y="0px"
	 viewBox="0 0 1500 1500" enable-background="new 0 0 1500 1500" xml:space="preserve">
<g>
	<rect x="0" fill="none" width="1500" height="1500"/>
</g>
<g>
	<path d="M179.99,950.21l-0.32-59.78h-45.79v-45.79h45.79v-43.88l75.05-13.36v57.24h100.17v45.79H254.72v42.93
		c0,19.72,10.18,29.89,33.07,29.89c22.26,0,38.79-7.95,56.6-24.17l15.9,42.29c-25.44,22.9-53.74,32.44-94.13,32.44
		C212.74,1013.81,179.99,989.64,179.99,950.21z"/>
	<path d="M370.79,926.36c0-51.2,53.1-87.13,129.1-87.13c74.73,0,124.02,34.66,124.02,87.45c0,4.77-0.64,11.77-2.23,17.17H449.97
		c8.59,19.08,37.21,26.71,68.05,26.71c32.44,0,65.19-7,82.04-16.54l20.67,35.62c-22.26,14.31-64.23,24.17-108.12,24.17
		C428.02,1013.81,370.79,979.78,370.79,926.36z M548.23,911.73c-0.95-18.76-22.58-31.48-48.97-31.48
		c-27.03,0-47.7,13.04-50.56,31.48H548.23z"/>
	<path d="M646.49,844.63h62.64l9.86,41.66h0.32c14.95-28.94,45.79-47.06,83.31-47.06c38.16,0,63.28,18.44,72.5,47.7h0.32
		c15.26-29.89,48.65-47.7,84.9-47.7c48.65,0,77.27,29.26,77.27,73.14v96.35h-75.36V923.5c0-22.9-13.67-36.57-37.21-36.57
		c-28.62,0-45.47,17.49-45.47,46.43v75.36h-75.05V923.5c0-22.9-13.99-36.57-37.21-36.57c-28.62,0-45.47,17.49-45.47,46.43v75.36
		h-75.36V844.63z"/>
	<path d="M1060.2,844.63h64.87l9.86,42.29h0.32c12.72-28.94,48.02-47.7,89.36-47.7c58.51,0,96.67,34.66,96.67,87.45
		c0,52.79-38.16,87.13-96.67,87.13c-41.02,0-76-18.44-88.72-47.06h-0.32v108.75h-75.36V844.63z M1245.91,926.68
		c0-22.58-22.26-37.52-56.6-37.52c-34.03,0-56.6,14.95-56.6,37.52c0,22.58,22.58,37.21,56.6,37.21
		C1223.65,963.88,1245.91,949.25,1245.91,926.68z"/>
	<path d="M136.1,1262.73l19.72-38.16c22.26,13.67,63.6,23.85,100.8,23.85c35.62,0,51.52-5.09,51.52-12.72
		c0-6.68-11.77-10.18-34.34-11.77l-40.7-3.18c-55.33-3.82-83.63-17.17-83.63-47.06c0-41.02,46.75-59.46,111.3-59.46
		c34.66,0,69,7.31,97.94,21.62l-17.81,34.66c-20.35-10.49-51.52-18.44-81.09-18.44c-26.39,0-46.75,4.13-46.75,12.4
		c0,6.36,9.86,8.9,29.57,10.49l40.7,3.5c60.1,4.45,90.31,18.44,90.31,51.2c0,41.02-48.02,59.15-112.25,59.15
		C214.33,1288.81,163.77,1278.31,136.1,1262.73z"/>
	<path d="M423.89,1225.21l-0.32-59.78h-45.79v-45.79h45.79v-43.88l75.05-13.36v57.24h100.17v45.79H498.62v42.93
		c0,19.72,10.18,29.89,33.07,29.89c22.26,0,38.79-7.95,56.6-24.17l15.9,42.29c-25.44,22.9-53.74,32.44-94.13,32.44
		C456.65,1288.81,423.89,1264.64,423.89,1225.21z"/>
	<path d="M614.69,1201.68c0-52.79,52.15-87.45,131.65-87.45c79.82,0,131.97,34.66,131.97,87.45c0,52.79-52.15,87.13-131.97,87.13
		C666.84,1288.81,614.69,1254.46,614.69,1201.68z M802.94,1201.68c0-26.08-22.26-43.25-56.6-43.25c-34.34,0-56.6,17.17-56.6,43.25
		c0,26.08,22.26,43.25,56.6,43.25C780.68,1244.92,802.94,1227.75,802.94,1201.68z"/>
	<path d="M1103.77,1186.41l-68.69,13.36c-1.27-24.49-12.08-40.07-27.67-40.07c-21.31,0-34.03,19.72-34.03,50.88v73.14h-75.36
		v-164.08h62.64l10.18,37.84h0.32c12.08-26.71,38.79-43.25,68.37-43.25C1076.1,1114.23,1101.22,1142.53,1103.77,1186.41z"/>
	<path d="M1113,1201.36c0-51.2,53.11-87.13,129.11-87.13c74.73,0,124.02,34.66,124.02,87.45c0,4.77-0.64,11.77-2.23,17.17h-171.72
		c8.59,19.08,37.21,26.71,68.05,26.71c32.44,0,65.19-7,82.04-16.54l20.67,35.62c-22.26,14.31-64.24,24.17-108.12,24.17
		C1170.24,1288.81,1113,1254.78,1113,1201.36z M1290.44,1186.73c-0.95-18.76-22.58-31.48-48.97-31.48
		c-27.03,0-47.7,13.04-50.56,31.48H1290.44z"/>
</g>
<rect x="133.88" y="149" width="1232.24" height="486.72"/>
</svg>
