<svg xmlns="http://www.w3.org/2000/svg" xml:space="preserve" viewBox="0 0 1500 1500">
<style>
    path { fill: #000000; }
    @media (prefers-color-scheme: dark) {
      path { fill: #ffffff; }
    }
</style>
    <path fill="none" d="M0 0h1500v1500H0z"/>
    <path d="M177.3 152.31H39.43V61.39h404.71v90.92H306.27V415.2H177.3V152.31zM414 287.21c0-79.56 82.52-135.4 200.63-135.4 116.13 0 192.72 53.86 192.72 135.89 0 7.41-.99 18.28-3.46 26.68H537.05c13.34 29.65 57.82 41.51 105.75 41.51 50.4 0 101.3-10.87 127.49-25.7l32.12 55.35c-34.59 22.24-99.82 37.56-168.01 37.56-131.45.01-220.4-52.87-220.4-135.89zm275.74-22.73c-1.48-29.15-35.08-48.92-76.1-48.92-42 0-74.12 20.26-78.57 48.92h154.67zM842.43 160.22h97.35l15.32 64.73h.49c23.23-44.97 71.16-73.14 129.47-73.14 59.3 0 98.34 28.66 112.67 74.12h.49c23.72-46.45 75.61-74.12 131.94-74.12 75.61 0 120.08 45.46 120.08 113.66V415.2h-117.11V282.77c0-35.58-21.25-56.83-57.82-56.83-44.47 0-70.66 27.18-70.66 72.15V415.2h-116.62V282.77c0-35.58-21.74-56.83-57.82-56.83-44.47 0-70.66 27.18-70.66 72.15V415.2H842.43V160.22zM54.75 664.06h100.81l15.32 65.72h.49c19.77-44.97 74.62-74.12 138.86-74.12 90.92 0 150.22 53.86 150.22 135.89 0 82.03-59.3 135.4-150.22 135.4-63.75 0-118.1-28.66-137.87-73.13h-.49v169H54.75V664.06zm288.58 127.49c0-35.08-34.59-58.31-87.96-58.31-52.87 0-87.96 23.23-87.96 58.31s35.09 57.82 87.96 57.82c53.37 0 87.96-22.73 87.96-57.82zM481.69 867.65l44.47-76.59c41.02 32.61 117.61 56.33 185.31 56.33 49.91 0 81.54-11.86 81.54-30.14 0-15.32-22.73-24.71-76.59-30.64l-65.23-7.41c-111.68-11.86-159.61-42.99-159.61-105.75 0-76.1 85.98-119.09 211.99-119.09 74.62 0 144.79 17.79 188.27 45.96l-36.07 74.12c-38.54-25.7-96.85-42-151.21-41.51-50.4.49-87.47 12.35-87.96 31.13 0 13.34 19.77 21.74 65.23 26.19l65.72 6.92c119.59 12.35 170.98 44.97 170.98 109.21.49 73.14-83.51 123.04-213.47 123.04-85 0-175.93-25.2-223.37-61.77zM999.57 828.12l-.49-92.9h-71.16v-71.16h71.16v-68.19l116.62-20.75v88.95h155.66v71.16H1115.7v66.71c0 30.64 15.81 46.45 51.39 46.45 34.59 0 60.29-12.35 87.96-37.56l24.71 65.72c-39.53 35.58-83.51 50.4-146.27 50.4-83.02 0-133.92-37.55-133.92-98.83zM46.35 1295.4c0-82.03 81.04-135.89 204.58-135.89 124.03 0 205.07 53.86 205.07 135.89s-81.04 135.4-205.07 135.4c-123.54 0-204.58-53.37-204.58-135.4zm292.54 0c0-40.52-34.59-67.2-87.96-67.2-53.37 0-87.96 26.68-87.96 67.2s34.59 67.2 87.96 67.2c53.37 0 87.96-26.68 87.96-67.2zM806.36 1271.68l-106.74 20.75c-1.98-38.05-18.78-62.26-42.99-62.26-33.11 0-52.87 30.64-52.87 79.06v113.66H486.64v-254.98h97.35l15.81 58.8h.49c18.78-41.51 60.29-67.2 106.24-67.2 56.83-.01 95.87 43.97 99.83 112.17zM820.69 1294.9c0-79.56 82.52-135.4 200.63-135.4 116.13 0 192.72 53.86 192.72 135.89 0 7.41-.99 18.28-3.46 26.68H943.73c13.34 29.65 57.82 41.51 105.75 41.51 50.4 0 101.3-10.87 127.49-25.7l32.12 55.35c-34.59 22.24-99.82 37.56-168.01 37.56-131.44.01-220.39-52.87-220.39-135.89zm275.74-22.73c-1.48-29.16-35.08-48.92-76.1-48.92-42 0-74.12 20.26-78.57 48.92h154.67zM1236.77 1372.98c0-32.61 26.68-55.34 64.24-55.34 37.56 0 64.73 22.73 64.73 55.34 0 32.12-27.18 55.35-64.73 55.35-37.56-.01-64.24-23.23-64.24-55.35z"/>
</svg>